<svg width="100" height="100" viewBox="0 0 100 100" fill="none" xmlns="http://www.w3.org/2000/svg">
<style>
    .circle {
        fill: #000;
    }
    .lines {
        stroke: #FFF;
    }
    @media (prefers-color-scheme: dark) {
        .circle {
            fill: #FFF;
        }
        .lines {
            stroke: #000;
        }
    }
</style>
<circle class="circle" cx="50" cy="50" r="48"/>
<path class="lines" d="M30 40C35.5228 40 40 44.4772 40 50C40 55.5228 35.5228 60 30 60" stroke-width="4" stroke-linecap="round"/>
<path class="lines" d="M70 40C64.4772 40 60 44.4772 60 50C60 55.5228 64.4772 60 70 60" stroke-width="4" stroke-linecap="round"/>
<path class="lines" d="M45 30C45 35.5228 40.5228 40 35 40" stroke-width="4" stroke-linecap="round"/>
<path class="lines" d="M55 30C55 35.5228 59.4772 40 65 40" stroke-width="4" stroke-linecap="round"/>
<path class="lines" d="M45 70C45 64.4772 40.5228 60 35 60" stroke-width="4" stroke-linecap="round"/>
<path class="lines" d="M55 70C55 64.4772 59.4772 60 65 60" stroke-width="4" stroke-linecap="round"/>
<path class="lines" d="M50 35V65" stroke-width="4" stroke-linecap="round"/>
</svg>
